<svg width="435" height="59" viewBox="0 0 435 59" fill="none" xmlns="http://www.w3.org/2000/svg">
<g clip-path="url(#clip0_26_7835)">
<path d="M104.873 57.4672L52.4228 45.4676L0.0325987 57.5L104.873 57.4672Z" fill="url(#paint0_angular_26_7835)"/>
<path d="M104.873 57.4672L52.4228 45.4676L0.0325987 57.5L104.873 57.4672Z" fill="url(#paint1_radial_26_7835)"/>
<path d="M104.84 54.1741L52.4297 23.1031L0 54.2069L52.4364 1.5L104.84 54.1741Z" fill="url(#paint2_angular_26_7835)"/>
<path d="M104.84 54.1741L52.4297 23.1031L0 54.2069L52.4364 1.5L104.84 54.1741Z" fill="url(#paint3_radial_26_7835)"/>
<path d="M118.085 47V13.4H122.021L137.093 38.792H134.981L149.861 13.4H153.797L153.845 47H149.237L149.189 20.648H150.293L137.045 42.92H134.837L121.493 20.648H122.693V47H118.085ZM168.296 27.896H185.576V31.976H168.296V27.896ZM168.728 42.824H188.312V47H163.928V13.4H187.64V17.576H168.728V42.824ZM196.085 47V13.4H200.021L222.245 41H220.181V13.4H224.981V47H221.045L198.821 19.4H200.885V47H196.085ZM250.206 47.384C247.614 47.384 245.23 46.968 243.054 46.136C240.878 45.272 238.99 44.072 237.39 42.536C235.79 40.968 234.542 39.144 233.646 37.064C232.75 34.984 232.302 32.696 232.302 30.2C232.302 27.704 232.75 25.416 233.646 23.336C234.542 21.256 235.79 19.448 237.39 17.912C239.022 16.344 240.926 15.144 243.102 14.312C245.278 13.448 247.678 13.016 250.302 13.016C252.958 13.016 255.39 13.448 257.598 14.312C259.806 15.176 261.678 16.472 263.214 18.2L260.238 21.176C258.862 19.832 257.358 18.856 255.726 18.248C254.126 17.608 252.382 17.288 250.494 17.288C248.574 17.288 246.782 17.608 245.118 18.248C243.486 18.888 242.062 19.784 240.846 20.936C239.662 22.088 238.734 23.464 238.062 25.064C237.422 26.632 237.102 28.344 237.102 30.2C237.102 32.024 237.422 33.736 238.062 35.336C238.734 36.904 239.662 38.28 240.846 39.464C242.062 40.616 243.486 41.512 245.118 42.152C246.75 42.792 248.526 43.112 250.446 43.112C252.238 43.112 253.95 42.84 255.582 42.296C257.246 41.72 258.782 40.776 260.19 39.464L262.926 43.112C261.262 44.52 259.31 45.592 257.07 46.328C254.862 47.032 252.574 47.384 250.206 47.384ZM258.318 42.488V30.008H262.926V43.112L258.318 42.488ZM296.212 13.4H301.012V47H296.212V13.4ZM276.916 47H272.116V13.4H276.916V47ZM296.644 32.024H276.436V27.848H296.644V32.024ZM326.237 47.384C323.677 47.384 321.293 46.952 319.085 46.088C316.909 45.224 315.021 44.024 313.421 42.488C311.821 40.92 310.573 39.096 309.677 37.016C308.781 34.936 308.333 32.664 308.333 30.2C308.333 27.736 308.781 25.464 309.677 23.384C310.573 21.304 311.821 19.496 313.421 17.96C315.021 16.392 316.909 15.176 319.085 14.312C321.261 13.448 323.645 13.016 326.237 13.016C328.797 13.016 331.149 13.448 333.293 14.312C335.469 15.144 337.357 16.344 338.957 17.912C340.589 19.448 341.837 21.256 342.701 23.336C343.597 25.416 344.045 27.704 344.045 30.2C344.045 32.696 343.597 34.984 342.701 37.064C341.837 39.144 340.589 40.968 338.957 42.536C337.357 44.072 335.469 45.272 333.293 46.136C331.149 46.968 328.797 47.384 326.237 47.384ZM326.237 43.112C328.093 43.112 329.805 42.792 331.373 42.152C332.973 41.512 334.349 40.616 335.501 39.464C336.685 38.28 337.597 36.904 338.237 35.336C338.909 33.768 339.245 32.056 339.245 30.2C339.245 28.344 338.909 26.632 338.237 25.064C337.597 23.496 336.685 22.136 335.501 20.984C334.349 19.8 332.973 18.888 331.373 18.248C329.805 17.608 328.093 17.288 326.237 17.288C324.349 17.288 322.605 17.608 321.005 18.248C319.437 18.888 318.061 19.8 316.877 20.984C315.693 22.136 314.765 23.496 314.093 25.064C313.453 26.632 313.133 28.344 313.133 30.2C313.133 32.056 313.453 33.768 314.093 35.336C314.765 36.904 315.693 38.28 316.877 39.464C318.061 40.616 319.437 41.512 321.005 42.152C322.605 42.792 324.349 43.112 326.237 43.112ZM357.585 47V17.576H346.065V13.4H373.857V17.576H362.337V47H357.585ZM383.453 27.896H400.733V31.976H383.453V27.896ZM383.885 42.824H403.469V47H379.085V13.4H402.797V17.576H383.885V42.824ZM411.241 47V13.4H416.041V42.824H434.233V47H411.241Z" fill="#FBBF24"/>
</g>
<defs>
<radialGradient id="paint0_angular_26_7835" cx="0" cy="0" r="1" gradientUnits="userSpaceOnUse" gradientTransform="translate(52.4364 57.7489) rotate(-90) scale(56.2489 55.9602)">
<stop offset="0.119792" stop-color="#FBBF24"/>
<stop offset="0.765625" stop-color="#FEF08A"/>
<stop offset="1" stop-color="#FACC15"/>
</radialGradient>
<radialGradient id="paint1_radial_26_7835" cx="0" cy="0" r="1" gradientUnits="userSpaceOnUse" gradientTransform="translate(52.4364 1.5) rotate(90) scale(54.337 54.0582)">
<stop stop-color="#F97316"/>
<stop offset="1" stop-color="#F97316" stop-opacity="0"/>
</radialGradient>
<radialGradient id="paint2_angular_26_7835" cx="0" cy="0" r="1" gradientUnits="userSpaceOnUse" gradientTransform="translate(52.4364 57.7489) rotate(-90) scale(56.2489 55.9602)">
<stop offset="0.119792" stop-color="#FBBF24"/>
<stop offset="0.765625" stop-color="#FEF08A"/>
<stop offset="1" stop-color="#FACC15"/>
</radialGradient>
<radialGradient id="paint3_radial_26_7835" cx="0" cy="0" r="1" gradientUnits="userSpaceOnUse" gradientTransform="translate(52.4364 1.5) rotate(90) scale(54.337 54.0582)">
<stop stop-color="#F97316"/>
<stop offset="1" stop-color="#F97316" stop-opacity="0"/>
</radialGradient>
<clipPath id="clip0_26_7835">
<rect width="434.873" height="59" fill="white"/>
</clipPath>
</defs>
</svg>
